<svg id="Layer_1" data-name="Layer 1" xmlns="http://www.w3.org/2000/svg" viewBox="0 0 32 32"><defs><style>.cls-1{fill:#fff;}</style></defs><path class="cls-1" d="M14,27a8.29,8.29,0,0,1-3.53-.74,7.51,7.51,0,0,1-2.73-2.14A9.75,9.75,0,0,1,6,20.66,16.25,16.25,0,0,1,5.36,16a14.65,14.65,0,0,1,1.09-6,8.48,8.48,0,0,1,3-3.77A8,8,0,0,1,14,5a8.22,8.22,0,0,1,2.93.5,6.8,6.8,0,0,1,2.26,1.38A5.41,5.41,0,0,1,20.58,9h.31l.24-3.57h5.51V26.64H21.13L20.89,23h-.31a5.59,5.59,0,0,1-2.4,2.88A7.86,7.86,0,0,1,14,27Zm2.1-4.72a4.76,4.76,0,0,0,2.63-.67,4.09,4.09,0,0,0,1.57-1.86,6.84,6.84,0,0,0,.51-2.7V15a6.36,6.36,0,0,0-.53-2.71,4.33,4.33,0,0,0-1.58-1.85,4.45,4.45,0,0,0-2.44-.67,4.78,4.78,0,0,0-2.76.75,4.6,4.6,0,0,0-1.64,2.16A9.25,9.25,0,0,0,11.3,16a9.87,9.87,0,0,0,.52,3.33,4.39,4.39,0,0,0,1.58,2.18A4.62,4.62,0,0,0,16.1,22.28Z"/></svg>